<svg xmlns="http://www.w3.org/2000/svg" height="902pt" version="1.1" viewBox="-8 0 902 902.50212" width="902pt">
<g id="surface1">
<path d="M 670.574219 723.214844 C 670.574219 761.964844 639.171875 793.375 600.421875 793.375 C 561.679688 793.375 530.265625 761.964844 530.265625 723.214844 C 530.265625 684.46875 561.679688 653.066406 600.421875 653.066406 C 639.171875 653.066406 670.574219 684.46875 670.574219 723.214844 Z M 670.574219 723.214844 " style=" stroke:none;fill-rule:nonzero;fill:rgb(0%,0%,0%);fill-opacity:1;" />
<path d="M 826.476562 832.34375 C 826.476562 871.09375 795.074219 902.503906 756.324219 902.503906 C 717.578125 902.503906 686.167969 871.09375 686.167969 832.34375 C 686.167969 793.597656 717.578125 762.1875 756.324219 762.1875 C 795.074219 762.1875 826.476562 793.597656 826.476562 832.34375 Z M 826.476562 832.34375 " style=" stroke:none;fill-rule:nonzero;fill:rgb(0%,0%,0%);fill-opacity:1;" />
<path d="M 62.785156 328.246094 C 64.058594 335.746094 70.550781 341.234375 78.167969 341.234375 C 85.769531 341.234375 92.261719 335.746094 93.53125 328.246094 C 97.765625 302.835938 117.671875 282.933594 143.082031 278.691406 C 150.578125 277.414062 156.066406 270.921875 156.066406 263.320312 C 156.066406 255.703125 150.578125 249.210938 143.082031 247.9375 C 117.671875 243.699219 97.765625 223.785156 93.53125 198.382812 C 92.261719 190.878906 85.769531 185.390625 78.167969 185.390625 C 70.550781 185.390625 64.058594 190.878906 62.785156 198.382812 C 58.550781 223.785156 38.652344 243.699219 13.246094 247.9375 C 5.746094 249.210938 0.25 255.703125 0.25 263.320312 C 0.25 270.921875 5.746094 277.414062 13.246094 278.691406 C 38.652344 282.933594 58.550781 302.835938 62.785156 328.246094 Z M 62.785156 328.246094 " style=" stroke:none;fill-rule:nonzero;fill:rgb(0%,0%,0%);fill-opacity:1;" />
<path d="M 229.613281 361.859375 C 213.71875 354.265625 195.027344 355.378906 180.136719 364.800781 L 176.519531 367.121094 L 214.886719 440.898438 C 247.960938 432.773438 282.511719 432.773438 315.59375 440.898438 L 353.96875 367.121094 L 350.347656 364.800781 C 335.460938 355.378906 316.769531 354.265625 300.859375 361.859375 C 278.324219 372.578125 252.152344 372.578125 229.613281 361.859375 Z M 229.613281 361.859375 " style=" stroke:none;fill-rule:nonzero;fill:rgb(0%,0%,0%);fill-opacity:1;" />
<path d="M 812.855469 211.867188 L 573.738281 186.75 C 565.535156 208.089844 543.164062 220.410156 520.746094 215.945312 C 498.335938 211.476562 482.402344 191.507812 483.023438 168.664062 C 483.636719 145.816406 500.617188 126.738281 523.238281 123.480469 C 545.859375 120.21875 567.539062 133.730469 574.570312 155.484375 L 859.207031 185.4375 C 859.414062 185.4375 859.574219 185.578125 859.753906 185.609375 L 886.132812 170.835938 L 530.265625 0 L 174.335938 171.691406 L 530.265625 370.167969 Z M 812.855469 211.867188 " style=" stroke:none;fill-rule:nonzero;fill:rgb(0%,0%,0%);fill-opacity:1;" />
<path d="M 545.859375 169.78125 C 545.859375 178.386719 538.882812 185.367188 530.265625 185.367188 C 521.660156 185.367188 514.679688 178.386719 514.679688 169.78125 C 514.679688 161.167969 521.660156 154.1875 530.265625 154.1875 C 538.882812 154.1875 545.859375 161.167969 545.859375 169.78125 Z M 545.859375 169.78125 " style=" stroke:none;fill-rule:nonzero;fill:rgb(0%,0%,0%);fill-opacity:1;" />
<path d="M 456.882812 804.394531 C 453.964844 801.472656 452.320312 797.511719 452.320312 793.375 L 452.320312 653.066406 C 452.320312 549.742188 368.566406 465.988281 265.242188 465.988281 C 161.921875 465.988281 78.167969 549.742188 78.167969 653.066406 L 78.167969 793.375 C 78.167969 797.511719 76.523438 801.472656 73.597656 804.394531 L 36.5 841.484375 C 31.5 846.476562 30.007812 853.996094 32.710938 860.535156 C 35.421875 867.066406 41.800781 871.324219 48.863281 871.324219 L 481.609375 871.324219 C 488.683594 871.324219 495.066406 867.066406 497.765625 860.535156 C 500.476562 853.996094 498.972656 846.476562 493.976562 841.484375 Z M 280.832031 746.605469 L 280.832031 777.785156 L 249.648438 777.785156 L 249.648438 746.605469 L 218.472656 746.605469 L 218.472656 715.417969 L 280.832031 715.417969 C 289.4375 715.417969 296.417969 708.441406 296.417969 699.835938 C 296.417969 691.226562 289.4375 684.246094 280.832031 684.246094 L 249.648438 684.246094 C 223.816406 684.246094 202.878906 663.300781 202.878906 637.476562 C 202.878906 611.636719 223.816406 590.707031 249.648438 590.707031 L 249.648438 559.527344 L 280.832031 559.527344 L 280.832031 590.707031 L 312.011719 590.707031 L 312.011719 621.878906 L 249.648438 621.878906 C 241.042969 621.878906 234.0625 628.863281 234.0625 637.476562 C 234.0625 646.082031 241.042969 653.066406 249.648438 653.066406 L 280.832031 653.066406 C 306.660156 653.066406 327.601562 673.996094 327.601562 699.835938 C 327.601562 725.660156 306.660156 746.605469 280.832031 746.605469 Z M 280.832031 746.605469 " style=" stroke:none;fill-rule:nonzero;fill:rgb(0%,0%,0%);fill-opacity:1;" />
<path d="M 854.570312 388.03125 L 830.328125 497.167969 L 884.988281 497.167969 L 860.746094 388.03125 Z M 854.570312 388.03125 " style=" stroke:none;fill-rule:nonzero;fill:rgb(0%,0%,0%);fill-opacity:1;" />
<path d="M 574.324219 562.640625 C 618.5 523.949219 674.3125 501.070312 732.9375 497.609375 L 732.9375 292.40625 L 537.878906 401.648438 C 533.15625 404.28125 527.398438 404.28125 522.671875 401.648438 L 327.601562 292.933594 L 327.601562 325.902344 C 341.664062 326.675781 355.304688 331.050781 367.183594 338.632812 L 382.773438 348.617188 C 389.527344 352.96875 391.871094 361.746094 388.179688 368.886719 L 345.792969 450.398438 C 388.132812 467.386719 424.136719 497.136719 448.8125 535.515625 C 462.050781 543.4375 474.566406 552.515625 486.230469 562.625 L 522.738281 594.570312 L 530.285156 601.167969 Z M 574.324219 562.640625 " style=" stroke:none;fill-rule:nonzero;fill:rgb(0%,0%,0%);fill-opacity:1;" />
<path d="M 842.066406 660.863281 C 842.066406 699.601562 810.660156 731.015625 771.910156 731.015625 C 733.167969 731.015625 701.757812 699.601562 701.757812 660.863281 C 701.757812 622.113281 733.167969 590.707031 771.910156 590.707031 C 810.660156 590.707031 842.066406 622.113281 842.066406 660.863281 Z M 842.066406 660.863281 " style=" stroke:none;fill-rule:nonzero;fill:rgb(0%,0%,0%);fill-opacity:1;" />
<path d="M 842.066406 232.960938 L 842.066406 356.859375 L 873.246094 356.859375 L 873.246094 214.910156 Z M 842.066406 232.960938 " style=" stroke:none;fill-rule:nonzero;fill:rgb(0%,0%,0%);fill-opacity:1;" />
</g>
</svg>